# Blender v2.77 (sub 0) OBJ File: ''
# www.blender.org
mtllib light-rail-7-13-v1.mtl
o 0_-_Light_Rail.001_Plane.000
v -0.204000 3.955451 -14.154730
v 0.204000 3.955451 -14.154730
v -0.204000 4.244549 -14.443828
v 0.204000 4.244549 -14.443828
v -0.204000 5.411614 -13.276762
v -0.204000 5.122516 -12.987664
v 0.204000 5.122516 -12.987664
v 0.204000 5.411614 -13.276762
v -0.204000 4.883118 -13.227062
v -0.204000 5.172216 -13.516160
v 0.204000 5.172216 -13.516160
v 0.204000 4.883118 -13.227062
v 0.204000 6.401399 -14.266546
v -0.204000 6.401399 -14.266546
v -0.204000 6.162001 -14.505945
v 0.204000 6.162001 -14.505945
v -1.314994 0.442503 -7.291877
v 1.314994 0.442503 -7.291877
v -1.286459 0.456771 -23.484533
v 1.286459 0.456771 -23.484533
v -1.286458 3.781643 -23.484533
v -1.314994 3.757497 -8.134533
v 1.314994 3.757497 -8.134533
v 1.286458 3.781643 -23.484533
v -0.000000 0.442503 -7.291877
v -0.000000 0.456771 -23.484533
v -0.000000 3.871664 -8.134533
v -0.000000 3.855079 -23.484533
v -0.000000 0.100000 -7.991877
v 1.700000 0.100000 -7.991877
v -0.000000 4.350000 -8.834534
v 2.000000 4.100000 -8.834534
v -2.000000 4.100000 -8.834534
v -1.700000 0.100000 -7.991877
v -0.000000 0.100000 -22.991877
v -1.700000 0.100000 -22.991877
v -0.000000 4.350000 -22.991877
v -2.000000 4.100000 -22.991877
v 2.000000 4.100000 -22.991877
v 1.700000 0.100000 -22.991877
v -2.000000 0.519355 -22.991877
v 2.000000 0.519355 -22.991877
v 2.000000 0.519355 -7.991877
v -2.000000 0.519355 -7.991877
v -0.000000 0.802012 -7.291877
v -0.000000 0.813045 -23.484533
v 1.314994 0.790043 -7.291877
v -1.314994 0.790043 -7.291877
v -1.286459 0.805346 -23.484533
v 1.286459 0.805346 -23.484533
v -0.204000 3.955452 2.653889
v 0.204000 3.955452 2.653889
v -0.204000 4.244550 2.364790
v 0.204000 4.244550 2.364790
v -0.204000 5.411615 3.531855
v -0.204000 5.122517 3.820955
v 0.204000 5.122517 3.820955
v 0.204000 5.411615 3.531855
v -0.204000 4.883119 3.581556
v -0.204000 5.172217 3.292458
v 0.204000 5.172217 3.292458
v 0.204000 4.883119 3.581556
v 0.204000 6.401400 2.542072
v -0.204000 6.401400 2.542072
v -0.204000 6.162002 2.302673
v 0.204000 6.162002 2.302673
v -1.314994 0.442504 9.516741
v 1.314994 0.442504 9.516741
v -1.286459 0.456771 -6.675915
v 1.286459 0.456771 -6.675915
v -1.286458 3.781644 -6.675914
v -1.314994 3.757498 8.674084
v 1.314994 3.757498 8.674084
v 1.286458 3.781644 -6.675914
v -0.000000 0.442504 9.516741
v -0.000000 0.456772 -6.675915
v -0.000000 3.871665 8.674084
v -0.000000 3.855079 -6.675914
v -0.000000 0.100001 8.816740
v 1.700000 0.100001 8.816740
v -0.000000 4.350001 7.974083
v 2.000000 4.100001 7.974083
v -2.000000 4.100001 7.974083
v -1.700000 0.100001 8.816740
v -0.000000 0.100001 -6.183260
v -1.700000 0.100001 -6.183260
v -0.000000 4.350001 -6.183258
v -2.000000 4.100001 -6.183258
v 2.000000 4.100001 -6.183258
v 1.700000 0.100001 -6.183260
v -2.000000 0.519356 -6.183260
v 2.000000 0.519356 -6.183260
v 2.000000 0.519356 8.816740
v -2.000000 0.519356 8.816740
v -0.000000 0.802013 9.516741
v -0.000000 0.813046 -6.675915
v 1.314994 0.790044 9.516741
v -1.314994 0.790044 9.516741
v -1.286459 0.805347 -6.675915
v 1.286459 0.805347 -6.675915
v 0.000000 1.391497 -6.785169
v -0.085927 1.386592 -6.785169
v -0.085927 1.187796 -6.785169
v 0.085927 1.386592 -6.785169
v 0.085927 1.187796 -6.785169
v 0.000000 1.188310 -6.785169
v 0.000000 1.391497 -7.723288
v -0.085927 1.386592 -7.723288
v -0.085927 1.187796 -7.723288
v 0.085927 1.386592 -7.723288
v 0.085927 1.187796 -7.723288
v 0.000000 1.188310 -7.723288
vn 0.0000 -0.7071 -0.7071
vn 0.0000 0.7071 0.7071
vn -1.0000 0.0000 0.0000
vn 0.0000 -0.7071 0.7071
vn 1.0000 -0.0000 0.0000
vn 0.0000 0.7071 -0.7071
vn 0.0000 -1.0000 0.0000
vn 0.1240 0.9923 0.0000
vn 0.0000 0.0000 -1.0000
vn -0.1240 0.9923 0.0000
vn 0.0000 -0.8982 0.4395
vn 0.0921 0.8387 0.5368
vn 0.7021 -0.2747 0.6569
vn -0.6987 0.1783 0.6929
vn -0.0921 0.8387 0.5368
vn 0.0000 -0.8099 -0.5865
vn -0.0731 0.7425 -0.6658
vn -0.5671 -0.2216 -0.7933
vn 0.5682 0.0000 -0.8229
vn 0.0731 0.7425 -0.6658
vn 0.5671 -0.2216 -0.7933
vn -0.5682 0.0000 -0.8229
vn -0.7021 -0.2747 0.6569
vn 0.6987 0.1783 0.6929
vn -0.0000 0.0000 1.0000
vn -0.8133 -0.5818 0.0000
vn 0.8133 -0.5818 0.0000
vn 0.0000 0.2689 0.9632
vn -0.0025 0.0443 -0.9990
vn 0.0570 0.9984 0.0000
vn 0.0906 0.0000 -0.9959
vn -0.0017 -0.2795 -0.9601
vn -0.0906 0.0000 -0.9959
vn 0.0017 -0.2795 -0.9601
vn 0.0025 0.0443 -0.9990
vn -0.0570 0.9984 0.0000
vn 0.0060 -1.0000 0.0000
vn -0.0060 -1.0000 0.0000
usemtl Basic_Material
s off
f 1//1 3//1 4//1 2//1
f 6//2 7//2 8//2 5//2
f 10//3 9//3 6//3 5//3
f 5//2 8//2 13//2 14//2
f 9//4 12//4 7//4 6//4
f 12//5 11//5 8//5 7//5
f 2//5 4//5 11//5 12//5
f 1//4 2//4 12//4 9//4
f 4//6 3//6 10//6 11//6
f 3//3 1//3 9//3 10//3
f 16//6 15//6 14//6 13//6
f 11//1 10//1 15//1 16//1
f 8//5 11//5 16//5 13//5
f 10//3 5//3 14//3 15//3
f 29//7 35//7 40//7 30//7
f 31//8 32//8 39//8 37//8
f 43//5 42//5 39//5 32//5
f 41//3 44//3 33//3 38//3
f 46//9 49//9 21//9 28//9 24//9 50//9
f 33//10 31//10 37//10 38//10
f 34//7 36//7 35//7 29//7
f 18//11 25//11 29//11 30//11
f 27//12 23//12 32//12 31//12
f 47//13 18//13 30//13 43//13
f 48//14 22//14 33//14 44//14
f 25//11 17//11 34//11 29//11
f 22//15 27//15 31//15 33//15
f 19//16 26//16 35//16 36//16
f 28//17 21//17 38//17 37//17
f 49//18 19//18 36//18 41//18
f 50//19 24//19 39//19 42//19
f 26//16 20//16 40//16 35//16
f 24//20 28//20 37//20 39//20
f 20//21 50//21 42//21 40//21
f 21//22 49//22 41//22 38//22
f 17//23 48//23 44//23 34//23
f 23//24 47//24 43//24 32//24
f 20//9 26//9 46//9 50//9
f 17//25 25//25 45//25 48//25
f 36//26 34//26 44//26 41//26
f 30//27 40//27 42//27 43//27
f 25//25 18//25 47//25 45//25
f 26//9 19//9 49//9 46//9
f 45//28 47//28 23//28 27//28 22//28 48//28
f 51//1 53//1 54//1 52//1
f 56//2 57//2 58//2 55//2
f 60//3 59//3 56//3 55//3
f 55//2 58//2 63//2 64//2
f 59//4 62//4 57//4 56//4
f 62//5 61//5 58//5 57//5
f 52//5 54//5 61//5 62//5
f 51//4 52//4 62//4 59//4
f 54//6 53//6 60//6 61//6
f 53//3 51//3 59//3 60//3
f 66//6 65//6 64//6 63//6
f 61//1 60//1 65//1 66//1
f 58//5 61//5 66//5 63//5
f 60//3 55//3 64//3 65//3
f 79//7 85//7 90//7 80//7
f 81//8 82//8 89//8 87//8
f 93//5 92//5 89//5 82//5
f 91//3 94//3 83//3 88//3
f 71//29 78//29 101//29 102//29
f 83//10 81//10 87//10 88//10
f 84//7 86//7 85//7 79//7
f 68//11 75//11 79//11 80//11
f 77//12 73//12 82//12 81//12
f 97//13 68//13 80//13 93//13
f 98//14 72//14 83//14 94//14
f 75//11 67//11 84//11 79//11
f 72//15 77//15 81//15 83//15
f 69//16 76//16 85//16 86//16
f 78//17 71//17 88//17 87//17
f 99//18 69//18 86//18 91//18
f 100//19 74//19 89//19 92//19
f 76//16 70//16 90//16 85//16
f 74//20 78//20 87//20 89//20
f 70//21 100//21 92//21 90//21
f 71//22 99//22 91//22 88//22
f 67//23 98//23 94//23 84//23
f 73//24 97//24 93//24 82//24
f 70//9 76//9 96//9 100//9
f 67//25 75//25 95//25 98//25
f 86//26 84//26 94//26 91//26
f 80//27 90//27 92//27 93//27
f 75//25 68//25 97//25 95//25
f 76//9 69//9 99//9 96//9
f 95//28 97//28 73//28 77//28 72//28 98//28
f 101//30 104//30 110//30 107//30
f 74//31 100//31 105//31 104//31
f 100//32 96//32 106//32 105//32
f 99//33 71//33 102//33 103//33
f 96//34 99//34 103//34 106//34
f 78//35 74//35 104//35 101//35
f 112//9 109//9 108//9 107//9 110//9 111//9
f 102//36 101//36 107//36 108//36
f 106//37 103//37 109//37 112//37
f 104//5 105//5 111//5 110//5
f 103//3 102//3 108//3 109//3
f 105//38 106//38 112//38 111//38
