# Blender v2.77 (sub 0) OBJ File: ''
# www.blender.org
mtllib racecar-7-13-v1.mtl
o 0_-_Racecar_Plane.008
v -7.212404 0.697691 4.547921
v -3.380748 0.697691 4.547921
v -7.212404 0.536493 4.569143
v -3.380748 0.536493 4.569143
v -7.212404 0.386281 4.631363
v -3.380748 0.386281 4.631363
v -7.212404 0.257291 4.730340
v -3.380748 0.257291 4.730340
v -7.212404 0.158314 4.859331
v -3.380748 0.158314 4.859331
v -7.212404 0.096094 5.009542
v -3.380748 0.096094 5.009542
v -7.212404 0.074872 5.170740
v -3.380748 0.074872 5.170740
v -7.212404 0.096094 5.331937
v -3.380748 0.096094 5.331937
v -7.212404 0.158314 5.482150
v -3.380748 0.158314 5.482150
v -7.212404 0.257291 5.611139
v -3.380748 0.257291 5.611139
v -7.212404 0.386281 5.710117
v -3.380748 0.386281 5.710117
v -7.212404 0.536493 5.772337
v -3.380748 0.536493 5.772337
v -7.212404 0.697690 5.793559
v -3.380748 0.697690 5.793559
v -7.212404 0.858888 5.772337
v -3.380748 0.858888 5.772337
v -7.212404 1.009100 5.710117
v -3.380748 1.009100 5.710117
v -7.212404 1.138090 5.611140
v -3.380748 1.138090 5.611140
v -7.212404 1.237067 5.482150
v -3.380748 1.237067 5.482150
v -7.212404 1.299287 5.331938
v -3.380748 1.299287 5.331938
v -7.212404 1.320510 5.170741
v -3.380748 1.320509 5.170741
v -7.212404 1.299288 5.009543
v -3.380748 1.299287 5.009543
v -7.212404 1.237068 4.859331
v -3.380748 1.237068 4.859331
v -7.212404 1.138090 4.730341
v -3.380748 1.138090 4.730341
v -7.212404 1.009100 4.631363
v -3.380748 1.009100 4.631363
v -7.212404 0.858889 4.569143
v -3.380748 0.858888 4.569143
v -3.859705 0.536493 4.569143
v -3.859705 0.697690 4.547921
v -3.859705 0.386281 4.631363
v -3.859705 0.257291 4.730340
v -3.859705 0.158314 4.859331
v -3.859705 0.096094 5.009542
v -3.859705 0.074872 5.170740
v -3.859705 0.096094 5.331937
v -3.859705 0.158313 5.482150
v -3.859705 0.257291 5.611139
v -3.859705 0.386281 5.710117
v -3.859705 0.536493 5.772337
v -3.859705 0.697690 5.793559
v -3.859705 0.858888 5.772337
v -3.859705 1.009100 5.710117
v -3.859705 1.138090 5.611140
v -3.859705 1.237067 5.482150
v -3.859705 1.299287 5.331938
v -3.859705 1.320509 5.170741
v -3.859705 1.299287 5.009543
v -3.859705 1.237068 4.859331
v -3.859705 1.138090 4.730341
v -3.859705 1.009100 4.631363
v -3.859705 0.858888 4.569143
v -6.733447 0.697691 4.547921
v -6.733447 0.536493 4.569143
v -6.733447 0.386281 4.631363
v -6.733447 0.257291 4.730340
v -6.733447 0.158314 4.859331
v -6.733447 0.096094 5.009542
v -6.733447 0.074872 5.170740
v -6.733447 0.096094 5.331937
v -6.733447 0.158314 5.482150
v -6.733447 0.257291 5.611139
v -6.733447 0.386281 5.710117
v -6.733447 0.536493 5.772337
v -6.733447 0.697690 5.793559
v -6.733447 0.858888 5.772337
v -6.733447 1.009100 5.710117
v -6.733447 1.138090 5.611140
v -6.733447 1.237067 5.482150
v -6.733447 1.299287 5.331938
v -6.733447 1.320509 5.170741
v -6.733447 1.299288 5.009543
v -6.733447 1.237068 4.859331
v -6.733447 1.138090 4.730341
v -6.733447 1.009100 4.631363
v -6.733447 0.858889 4.569143
v -7.290053 0.697691 -1.482736
v -3.353876 0.697690 -1.482736
v -7.290053 0.536493 -1.461514
v -3.353876 0.536493 -1.461514
v -7.290053 0.386281 -1.399294
v -3.353876 0.386281 -1.399294
v -7.290053 0.257291 -1.300317
v -3.353876 0.257291 -1.300317
v -7.290053 0.158314 -1.171327
v -3.353876 0.158314 -1.171327
v -7.290053 0.096094 -1.021115
v -3.353876 0.096094 -1.021115
v -7.290053 0.074872 -0.859917
v -3.353876 0.074872 -0.859917
v -7.290053 0.096094 -0.698720
v -3.353876 0.096094 -0.698720
v -7.290053 0.158314 -0.548508
v -3.353876 0.158314 -0.548508
v -7.290053 0.257291 -0.419518
v -3.353876 0.257291 -0.419518
v -7.290053 0.386281 -0.320540
v -3.353876 0.386281 -0.320540
v -7.290053 0.536493 -0.258320
v -3.353876 0.536493 -0.258320
v -7.290053 0.697690 -0.237098
v -3.353876 0.697690 -0.237098
v -7.290053 0.858888 -0.258320
v -3.353876 0.858888 -0.258320
v -7.290053 1.009100 -0.320540
v -3.353876 1.009100 -0.320540
v -7.290053 1.138090 -0.419518
v -3.353876 1.138090 -0.419518
v -7.290053 1.237067 -0.548507
v -3.353876 1.237067 -0.548507
v -7.290053 1.299287 -0.698720
v -3.353876 1.299287 -0.698720
v -7.290053 1.320510 -0.859917
v -3.353876 1.320509 -0.859917
v -7.290053 1.299288 -1.021114
v -3.353876 1.299287 -1.021114
v -7.290053 1.237068 -1.171326
v -3.353876 1.237068 -1.171326
v -7.290053 1.138090 -1.300316
v -3.353876 1.138090 -1.300316
v -7.290053 1.009100 -1.399294
v -3.353876 1.009100 -1.399294
v -7.290053 0.858889 -1.461514
v -3.353876 0.858888 -1.461514
v -3.845898 0.536493 -1.461514
v -3.845898 0.697690 -1.482736
v -3.845898 0.386281 -1.399294
v -3.845898 0.257291 -1.300317
v -3.845898 0.158314 -1.171327
v -3.845898 0.096094 -1.021115
v -3.845898 0.074872 -0.859917
v -3.845898 0.096094 -0.698720
v -3.845898 0.158313 -0.548508
v -3.845898 0.257291 -0.419518
v -3.845898 0.386281 -0.320540
v -3.845898 0.536493 -0.258320
v -3.845898 0.697690 -0.237098
v -3.845898 0.858888 -0.258320
v -3.845898 1.009100 -0.320540
v -3.845898 1.138090 -0.419518
v -3.845898 1.237067 -0.548507
v -3.845898 1.299287 -0.698720
v -3.845898 1.320509 -0.859917
v -3.845898 1.299287 -1.021114
v -3.845898 1.237068 -1.171326
v -3.845898 1.138090 -1.300316
v -3.845898 1.009100 -1.399294
v -3.845898 0.858888 -1.461514
v -6.798031 0.697691 -1.482736
v -6.798031 0.536493 -1.461514
v -6.798031 0.386281 -1.399294
v -6.798031 0.257291 -1.300317
v -6.798031 0.158314 -1.171327
v -6.798031 0.096094 -1.021115
v -6.798031 0.074872 -0.859917
v -6.798031 0.096094 -0.698720
v -6.798031 0.158314 -0.548508
v -6.798031 0.257291 -0.419518
v -6.798031 0.386281 -0.320540
v -6.798031 0.536493 -0.258320
v -6.798031 0.697690 -0.237098
v -6.798031 0.858888 -0.258320
v -6.798031 1.009100 -0.320540
v -6.798031 1.138090 -0.419518
v -6.798031 1.237067 -0.548507
v -6.798031 1.299287 -0.698720
v -6.798031 1.320509 -0.859917
v -6.798031 1.299288 -1.021114
v -6.798031 1.237068 -1.171326
v -6.798031 1.138090 -1.300316
v -6.798031 1.009100 -1.399294
v -6.798031 0.858889 -1.461514
v -7.326053 0.733749 6.540854
v -3.326053 0.733749 6.540854
v -7.326053 0.600000 -2.844588
v -3.326053 0.600000 -2.844588
v -7.033062 1.173873 -3.204674
v -7.326053 1.675341 6.795326
v -3.326053 1.675341 6.795326
v -3.819044 1.173873 -3.204674
v -7.326053 0.600000 0.863848
v -3.326053 0.600000 0.863848
v -7.326053 0.600000 4.278931
v -6.974949 2.298816 3.616080
v -3.326053 0.600000 4.278931
v -3.679952 2.311735 3.667447
v -3.326053 1.600000 6.180265
v -7.326053 1.600000 6.180264
v -7.326053 0.767048 3.953569
v -3.326053 0.767048 3.908750
v -7.326053 0.767048 1.390037
v -3.326053 0.767048 1.345216
v -3.226053 1.031523 6.795326
v -7.426053 1.031523 6.795326
v -3.819044 0.941577 -3.222047
v -7.033062 0.942385 -3.222502
v -7.326053 0.785643 -2.905093
v -3.326053 0.784836 -2.904639
v -3.530928 1.622542 0.516350
v -3.530928 1.622542 4.432617
v -7.118388 1.635303 4.352742
v -7.118427 1.635305 0.792560
v -7.195375 2.003152 0.685986
v -6.974905 2.296667 1.721303
v -3.456731 2.003152 0.685986
v -3.679952 2.311735 1.680851
v -3.326053 1.536377 -1.557334
v -3.456731 1.584308 -1.203854
v -7.195375 1.584308 -1.203853
v -7.326053 1.554872 -1.567332
v -3.326053 0.600000 4.569031
v -3.326053 0.623220 5.803723
v -3.326053 1.343696 5.098795
v -3.326053 1.326989 5.017066
v -3.326053 1.300060 4.939564
v -3.326053 1.263656 4.867038
v -3.326053 1.218530 4.800236
v -3.326053 1.165431 4.739911
v -3.326053 1.105105 4.686810
v -3.226053 1.038305 4.641685
v -3.326053 0.965779 4.605282
v -3.326053 0.888276 4.578353
v -3.326053 0.806545 4.561645
v -3.326053 0.721338 4.555908
v -3.326053 0.636130 4.561645
v -3.326057 0.636130 5.806362
v -3.326051 0.721338 5.812099
v -3.326051 0.806545 5.806362
v -3.326053 0.888276 5.789655
v -3.326053 0.965778 5.762725
v -3.226053 1.038305 5.726323
v -3.326053 1.105105 5.681197
v -3.326053 1.165431 5.628096
v -3.326053 1.218530 5.567771
v -3.326053 1.263656 5.500971
v -3.326053 1.300060 5.428444
v -3.326053 1.326989 5.350942
v -3.326053 1.343696 5.269212
v -3.326053 1.349433 5.184004
v -3.326053 0.600000 -0.240551
v -3.326053 0.600000 -1.470497
v -3.326055 1.343696 -0.940732
v -3.326055 1.326989 -1.022460
v -3.326055 1.300060 -1.099964
v -3.326055 1.263656 -1.172490
v -3.326055 1.218530 -1.239291
v -3.326055 1.165431 -1.299616
v -3.326055 1.105105 -1.352716
v -3.426053 1.038305 -1.397843
v -3.326053 0.965779 -1.434245
v -3.326053 0.888276 -1.461175
v -3.326053 0.806545 -1.477883
v -3.326053 0.721338 -1.483619
v -3.326053 0.636130 -1.477883
v -3.326053 0.636130 -0.233165
v -3.326053 0.721338 -0.227428
v -3.326053 0.806545 -0.233165
v -3.326053 0.888276 -0.249872
v -3.326053 0.965778 -0.276802
v -3.226053 1.038305 -0.313204
v -3.326053 1.105105 -0.358330
v -3.326053 1.165431 -0.411431
v -3.326053 1.218530 -0.471756
v -3.326053 1.263656 -0.538556
v -3.326055 1.300060 -0.611083
v -3.326055 1.326989 -0.688586
v -3.326055 1.343696 -0.770315
v -3.326055 1.349433 -0.855524
v -7.326053 0.600000 -1.470491
v -7.326053 0.600000 -0.240543
v -7.326055 1.343694 -0.940728
v -7.326051 1.326987 -1.022456
v -7.326051 1.300057 -1.099960
v -7.326051 1.263654 -1.172485
v -7.326051 1.218527 -1.239286
v -7.326052 1.165428 -1.299612
v -7.326051 1.105102 -1.352712
v -7.326051 1.038302 -1.397838
v -7.326051 0.965776 -1.434241
v -7.326051 0.888273 -1.461170
v -7.326051 0.806543 -1.477878
v -7.326049 0.721336 -1.483613
v -7.326053 0.636128 -1.477878
v -7.326053 0.636128 -0.233160
v -7.326051 0.721336 -0.227424
v -7.326051 0.806543 -0.233160
v -7.326051 0.888273 -0.249867
v -7.326052 0.965777 -0.276797
v -7.426051 1.038303 -0.313199
v -7.326055 1.105103 -0.358325
v -7.326055 1.165428 -0.411426
v -7.326055 1.218528 -0.471751
v -7.326055 1.263654 -0.538552
v -7.326055 1.300057 -0.611078
v -7.326055 1.326987 -0.688581
v -7.326055 1.343694 -0.770311
v -7.326055 1.349431 -0.855519
v -7.326053 0.600000 4.569037
v -7.326053 0.623222 5.803737
v -7.326051 1.343699 5.098799
v -7.326051 1.326992 5.017072
v -7.326052 1.300062 4.939569
v -7.326053 1.263659 4.867042
v -7.326053 1.218532 4.800241
v -7.326053 1.165433 4.739916
v -7.326053 1.105107 4.686815
v -7.426053 1.038307 4.641690
v -7.326053 0.965781 4.605289
v -7.326053 0.888278 4.578357
v -7.326053 0.806548 4.561650
v -7.326053 0.721340 4.555914
v -7.326053 0.636132 4.561650
v -7.326055 0.636133 5.806368
v -7.326054 0.721341 5.812105
v -7.326053 0.806549 5.806368
v -7.326051 0.888278 5.789660
v -7.326051 0.965781 5.762732
v -7.426051 1.038308 5.726329
v -7.326051 1.105108 5.681201
v -7.326051 1.165433 5.628102
v -7.326051 1.218533 5.567778
v -7.326052 1.263660 5.500975
v -7.326051 1.300062 5.428450
v -7.326051 1.326992 5.350946
v -7.326052 1.343699 5.269217
v -7.326051 1.349435 5.184009
v -3.226053 1.031522 4.406149
v -3.226053 1.031523 0.645849
v -3.426053 1.031523 -2.251366
v -7.326053 1.031518 -2.267381
v -7.426053 1.031516 4.406147
v -7.426053 1.031516 0.732156
v -3.326053 1.599999 4.573745
v -3.484827 2.334278 3.758519
v -3.326053 1.599999 0.358663
v -3.484827 2.334278 1.599342
v -7.326053 1.600003 4.573745
v -7.167280 2.334278 3.758519
v -7.326053 1.600003 0.558663
v -7.167280 2.331816 1.586337
vn -1.0000 0.0000 0.0000
vn 1.0000 0.0000 0.0000
vn 0.0000 0.9239 -0.3827
vn 0.0000 -0.3827 0.9239
vn 0.0000 0.1305 -0.9914
vn 0.0000 0.1305 0.9914
vn 0.0000 -0.7934 -0.6088
vn 0.0000 0.9239 0.3827
vn 0.0000 -0.9239 0.3827
vn 0.0000 0.7934 -0.6088
vn 0.0000 -0.1305 0.9914
vn 0.0000 -0.1305 -0.9914
vn 0.0000 0.3827 0.9239
vn 0.0000 -0.9239 -0.3827
vn 0.0000 0.9914 0.1305
vn 0.0000 -0.7934 0.6088
vn 0.0000 0.6088 -0.7934
vn 0.0000 -0.3827 -0.9239
vn 0.0000 0.6088 0.7934
vn 0.0000 -0.9914 -0.1305
vn 0.0000 0.9914 -0.1305
vn 0.0000 -0.6088 0.7934
vn 0.0000 0.3827 -0.9239
vn 0.0000 -0.6088 -0.7934
vn 0.0000 0.7934 0.6088
vn 0.0000 -0.9914 0.1305
vn 0.0000 -1.0000 0.0000
vn -0.0003 1.0000 -0.0006
vn 0.0000 -0.3094 -0.9509
vn 0.0000 0.0000 1.0000
vn -0.9495 -0.2616 0.1735
vn 0.9462 -0.3237 -0.0000
vn 0.9774 0.2113 0.0000
vn -0.0024 -0.9014 -0.4330
vn 0.0000 0.9926 -0.1216
vn 0.9570 -0.2877 -0.0372
vn -0.9456 -0.3254 0.0000
vn 0.0000 0.9570 0.2902
vn 0.9714 -0.2338 -0.0415
vn 0.0018 -0.9492 0.3147
vn 0.0000 -0.6497 0.7602
vn 0.0001 0.0757 -0.9971
vn -0.0001 -0.8967 -0.4427
vn 0.9747 0.2233 -0.0074
vn 0.0028 0.9753 -0.2209
vn -0.9774 0.2113 0.0000
vn -0.9773 0.2117 -0.0001
vn -0.0000 0.9763 -0.2164
vn 0.8107 0.5634 -0.1591
vn 0.0003 0.9398 -0.3419
vn -0.7649 0.6203 -0.1736
vn 0.0025 0.9942 -0.1073
vn -0.9759 0.2182 -0.0046
vn -0.9152 0.3243 -0.2394
vn 0.8582 0.4168 -0.2998
vn 0.9849 0.1732 0.0000
vn 0.9986 0.0298 -0.0441
vn 0.9716 0.2334 -0.0384
vn 0.9932 0.1160 -0.0035
vn 0.9495 -0.2616 0.1735
vn -0.9961 0.0856 -0.0213
vn -0.9716 -0.2333 -0.0398
vn -0.9849 0.1732 -0.0000
vn -0.9932 0.1160 -0.0035
vn -0.9570 -0.2877 -0.0372
vn 0.3822 -0.6484 -0.6584
vn 0.1094 0.9940 0.0000
vn 0.1148 -0.9934 0.0000
vn 0.3071 -0.8013 0.5135
vn -0.5572 -0.5601 -0.6130
vn -0.1676 0.9859 0.0000
vn -0.5074 -0.6630 0.5505
vn -0.1805 -0.9836 0.0011
usemtl Basic_Material
s off
f 4//1 6//1 8//1 10//1 12//1 14//1 16//1 18//1 20//1 22//1 24//1 26//1 28//1 30//1 32//1 34//1 36//1 38//1 40//1 42//1 44//1 46//1 48//1 2//1
f 1//2 47//2 45//2 43//2 41//2 39//2 37//2 35//2 33//2 31//2 29//2 27//2 25//2 23//2 21//2 19//2 17//2 15//2 13//2 11//2 9//2 7//2 5//2 3//2
f 49//2 50//2 72//2 71//2 70//2 69//2 68//2 67//2 66//2 65//2 64//2 63//2 62//2 61//2 60//2 59//2 58//2 57//2 56//2 55//2 54//2 53//2 52//2 51//2
f 18//3 16//3 56//3 57//3
f 48//4 46//4 71//4 72//4
f 26//5 24//5 60//5 61//5
f 4//6 2//6 50//6 49//6
f 34//7 32//7 64//7 65//7
f 12//8 10//8 53//8 54//8
f 42//9 40//9 68//9 69//9
f 20//10 18//10 57//10 58//10
f 2//11 48//11 72//11 50//11
f 28//12 26//12 61//12 62//12
f 6//13 4//13 49//13 51//13
f 36//14 34//14 65//14 66//14
f 14//15 12//15 54//15 55//15
f 44//16 42//16 69//16 70//16
f 22//17 20//17 58//17 59//17
f 30//18 28//18 62//18 63//18
f 8//19 6//19 51//19 52//19
f 38//20 36//20 66//20 67//20
f 16//21 14//21 55//21 56//21
f 46//22 44//22 70//22 71//22
f 24//23 22//23 59//23 60//23
f 32//24 30//24 63//24 64//24
f 10//25 8//25 52//25 53//25
f 40//26 38//26 67//26 68//26
f 73//1 74//1 75//1 76//1 77//1 78//1 79//1 80//1 81//1 82//1 83//1 84//1 85//1 86//1 87//1 88//1 89//1 90//1 91//1 92//1 93//1 94//1 95//1 96//1
f 31//7 33//7 89//7 88//7
f 9//8 11//8 78//8 77//8
f 39//9 41//9 93//9 92//9
f 17//10 19//10 82//10 81//10
f 47//11 1//11 73//11 96//11
f 25//12 27//12 86//12 85//12
f 3//13 5//13 75//13 74//13
f 33//14 35//14 90//14 89//14
f 11//15 13//15 79//15 78//15
f 41//16 43//16 94//16 93//16
f 19//17 21//17 83//17 82//17
f 27//18 29//18 87//18 86//18
f 5//19 7//19 76//19 75//19
f 35//20 37//20 91//20 90//20
f 13//21 15//21 80//21 79//21
f 43//22 45//22 95//22 94//22
f 21//23 23//23 84//23 83//23
f 29//24 31//24 88//24 87//24
f 7//25 9//25 77//25 76//25
f 37//26 39//26 92//26 91//26
f 15//3 17//3 81//3 80//3
f 45//4 47//4 96//4 95//4
f 23//5 25//5 85//5 84//5
f 1//6 3//6 74//6 73//6
f 100//1 102//1 104//1 106//1 108//1 110//1 112//1 114//1 116//1 118//1 120//1 122//1 124//1 126//1 128//1 130//1 132//1 134//1 136//1 138//1 140//1 142//1 144//1 98//1
f 97//2 143//2 141//2 139//2 137//2 135//2 133//2 131//2 129//2 127//2 125//2 123//2 121//2 119//2 117//2 115//2 113//2 111//2 109//2 107//2 105//2 103//2 101//2 99//2
f 145//2 146//2 168//2 167//2 166//2 165//2 164//2 163//2 162//2 161//2 160//2 159//2 158//2 157//2 156//2 155//2 154//2 153//2 152//2 151//2 150//2 149//2 148//2 147//2
f 114//3 112//3 152//3 153//3
f 144//4 142//4 167//4 168//4
f 122//5 120//5 156//5 157//5
f 100//6 98//6 146//6 145//6
f 130//7 128//7 160//7 161//7
f 108//8 106//8 149//8 150//8
f 138//9 136//9 164//9 165//9
f 116//10 114//10 153//10 154//10
f 98//11 144//11 168//11 146//11
f 124//12 122//12 157//12 158//12
f 102//13 100//13 145//13 147//13
f 132//14 130//14 161//14 162//14
f 110//15 108//15 150//15 151//15
f 140//16 138//16 165//16 166//16
f 118//17 116//17 154//17 155//17
f 126//18 124//18 158//18 159//18
f 104//19 102//19 147//19 148//19
f 134//20 132//20 162//20 163//20
f 112//21 110//21 151//21 152//21
f 142//22 140//22 166//22 167//22
f 120//23 118//23 155//23 156//23
f 128//24 126//24 159//24 160//24
f 106//25 104//25 148//25 149//25
f 136//26 134//26 163//26 164//26
f 169//1 170//1 171//1 172//1 173//1 174//1 175//1 176//1 177//1 178//1 179//1 180//1 181//1 182//1 183//1 184//1 185//1 186//1 187//1 188//1 189//1 190//1 191//1 192//1
f 127//7 129//7 185//7 184//7
f 105//8 107//8 174//8 173//8
f 135//9 137//9 189//9 188//9
f 113//10 115//10 178//10 177//10
f 143//11 97//11 169//11 192//11
f 121//12 123//12 182//12 181//12
f 99//13 101//13 171//13 170//13
f 129//14 131//14 186//14 185//14
f 107//15 109//15 175//15 174//15
f 137//16 139//16 190//16 189//16
f 115//17 117//17 179//17 178//17
f 123//18 125//18 183//18 182//18
f 101//19 103//19 172//19 171//19
f 131//20 133//20 187//20 186//20
f 109//21 111//21 176//21 175//21
f 139//22 141//22 191//22 190//22
f 117//23 119//23 180//23 179//23
f 125//24 127//24 184//24 183//24
f 103//25 105//25 173//25 172//25
f 133//26 135//26 188//26 187//26
f 111//3 113//3 177//3 176//3
f 141//4 143//4 192//4 191//4
f 119//5 121//5 181//5 180//5
f 97//6 99//6 170//6 169//6
f 201//27 290//27 260//27 202//27
f 358//28 354//28 356//28 360//28
f 196//29 195//29 217//29 218//29
f 214//30 213//30 199//30 198//30
f 195//1 289//1 303//1 302//1 301//1 300//1 299//1 298//1 350//1
f 203//31 318//31 332//31 331//31 330//31 329//31 328//31 327//31 351//31
f 205//32 210//32 212//32 202//32 348//32 347//32
f 220//33 219//33 226//33 206//33
f 203//34 209//34 210//34 205//34
f 198//35 199//35 207//35 208//35
f 194//36 232//36 246//36 247//36 248//36 249//36 250//36 251//36 213//36
f 201//37 211//37 209//37 203//37 351//37 352//37
f 208//38 207//38 354//38 358//38
f 202//39 260//39 275//39 276//39 277//39 278//39 279//39 280//39 348//39
f 210//27 209//27 211//27 212//27
f 212//40 211//40 201//40 202//40
f 193//41 194//41 213//41 214//41
f 215//42 216//42 197//42 200//42
f 218//43 217//43 216//43 215//43
f 355//44 227//44 356//44
f 230//45 227//45 200//45 197//45
f 207//33 353//33 354//33
f 357//46 208//46 358//46
f 222//47 221//47 204//47 224//47
f 223//48 225//48 228//48 229//48
f 230//49 360//49 223//49 229//49
f 225//50 223//50 360//50 356//50
f 356//51 227//51 228//51 225//51
f 229//52 228//52 227//52 230//52
f 230//53 359//53 360//53
f 231//27 318//27 203//27 205//27
f 261//27 289//27 195//27 196//27
f 230//54 197//54 216//54 217//54 195//54 350//54
f 227//55 349//55 196//55 218//55 215//55 200//55
f 347//56 348//56 355//56 353//56
f 348//57 280//57 281//57 282//57 283//57 284//57 285//57 286//57 287//57 288//57 262//57 263//57 264//57 265//57 266//57 267//57 268//57 269//57 349//57 227//57 355//57
f 349//58 269//58 270//58 271//58 272//58 273//58 274//58 261//58 196//58
f 213//59 251//59 252//59 253//59 254//59 255//59 256//59 257//59 258//59 259//59 233//59 234//59 235//59 236//59 237//59 238//59 239//59 240//59 347//59 353//59 207//59 199//59
f 347//60 240//60 241//60 242//60 243//60 244//60 245//60 231//60 205//60
f 350//61 298//61 297//61 296//61 295//61 294//61 293//61 292//61 291//61 317//61 316//61 315//61 314//61 313//61 312//61 311//61 310//61 309//61 352//61 359//61 230//61
f 352//62 309//62 308//62 307//62 306//62 305//62 304//62 290//62 201//62
f 352//63 351//63 357//63 359//63
f 351//64 327//64 326//64 325//64 324//64 323//64 322//64 321//64 320//64 346//64 345//64 344//64 343//64 342//64 341//64 340//64 339//64 338//64 214//64 198//64 208//64 357//64
f 214//65 338//65 337//65 336//65 335//65 334//65 333//65 319//65 193//65
f 220//66 206//66 354//66 353//66
f 219//67 220//67 353//67 355//67
f 206//68 226//68 356//68 354//68
f 226//69 219//69 355//69 356//69
f 204//70 221//70 357//70 358//70
f 221//71 222//71 359//71 357//71
f 222//72 224//72 360//72 359//72
f 224//73 204//73 358//73 360//73
